<svg width="28" height="28" viewBox="0 0 28 28" fill="none" xmlns="http://www.w3.org/2000/svg">
<path fill-rule="evenodd" clip-rule="evenodd" d="M13.835 0C6.19116 0 0 6.34776 0 14.1849C0 20.4618 3.96027 25.7634 9.45968 27.6429C10.1514 27.767 10.4108 27.3415 10.4108 26.9691C10.4108 26.6322 10.3935 25.5152 10.3935 24.3272C6.9175 24.9832 6.01822 23.4583 5.74152 22.6604C5.58588 22.2526 4.91143 20.9937 4.32344 20.6568C3.83921 20.3909 3.14746 19.7348 4.30614 19.7171C5.39565 19.6993 6.17387 20.7455 6.43328 21.171C7.67843 23.3165 9.66721 22.7136 10.4627 22.3413C10.5838 21.4193 10.9469 20.7987 11.3447 20.444C8.26641 20.0894 5.04978 18.866 5.04978 13.4402C5.04978 11.8976 5.58588 10.621 6.46786 9.62803C6.32951 9.2734 5.84529 7.81945 6.60621 5.86902C6.60621 5.86902 7.76489 5.49666 10.4108 7.32298C11.5176 7.00381 12.6936 6.84423 13.8696 6.84423C15.0456 6.84423 16.2215 7.00381 17.3283 7.32298C19.9743 5.47893 21.133 5.86902 21.133 5.86902C21.8939 7.81945 21.4097 9.2734 21.2713 9.62803C22.1533 10.621 22.6894 11.8799 22.6894 13.4402C22.6894 18.8837 19.4555 20.0894 16.3772 20.444C16.8787 20.8873 17.311 21.7384 17.311 23.0683C17.311 24.9655 17.2938 26.4904 17.2938 26.9691C17.2938 27.3415 17.5532 27.7848 18.2449 27.6429C23.7097 25.7634 27.67 20.444 27.67 14.1849C27.67 6.34776 21.4788 0 13.835 0Z" fill="#02073E"/>
</svg>
