<svg width="111" height="66" viewBox="0 0 111 66" fill="none" xmlns="http://www.w3.org/2000/svg">
<path d="M15.06 10.06V25.27C15.06 26.21 14.9 27.06 14.58 27.82C14.26 28.56 13.8 29.19 13.2 29.71C12.62 30.23 11.91 30.64 11.07 30.94C10.25 31.22 9.33 31.36 8.31 31.36C6.33 31.36 4.77 30.86 3.63 29.86C2.51 28.86 1.79 27.53 1.47 25.87L5.16 25.09C5.34 25.97 5.66 26.7 6.12 27.28C6.6 27.84 7.33 28.12 8.31 28.12C9.21 28.12 9.9 27.86 10.38 27.34C10.86 26.8 11.1 25.96 11.1 24.82V13.3H4.02V10.06H15.06ZM32.6883 31C31.7483 31 31.0183 30.77 30.4983 30.31C29.9983 29.83 29.6983 29.17 29.5983 28.33H29.4483C29.1683 29.29 28.6183 30.04 27.7983 30.58C26.9783 31.1 25.9683 31.36 24.7683 31.36C23.2083 31.36 21.9683 30.95 21.0483 30.13C20.1283 29.31 19.6683 28.17 19.6683 26.71C19.6683 23.59 21.9583 22.03 26.5383 22.03H29.2683V21.01C29.2683 20.03 29.0283 19.29 28.5483 18.79C28.0683 18.29 27.2883 18.04 26.2083 18.04C25.2283 18.04 24.4383 18.23 23.8383 18.61C23.2383 18.99 22.7283 19.48 22.3083 20.08L20.1183 18.22C20.5983 17.36 21.3683 16.64 22.4283 16.06C23.5083 15.46 24.8983 15.16 26.5983 15.16C28.6383 15.16 30.2283 15.64 31.3683 16.6C32.5283 17.54 33.1083 18.95 33.1083 20.83V28.12H34.9383V31H32.6883ZM26.0583 28.72C26.9783 28.72 27.7383 28.51 28.3383 28.09C28.9583 27.65 29.2683 27.06 29.2683 26.32V24.25H26.6283C24.5283 24.25 23.4783 24.91 23.4783 26.23V26.83C23.4783 27.45 23.7083 27.92 24.1683 28.24C24.6283 28.56 25.2583 28.72 26.0583 28.72ZM44.9166 31.36C43.2166 31.36 41.7466 31.1 40.5066 30.58C39.2666 30.04 38.2966 29.32 37.5966 28.42L39.8466 26.38C40.4866 27.08 41.2166 27.62 42.0366 28C42.8766 28.38 43.8466 28.57 44.9466 28.57C45.9066 28.57 46.6766 28.41 47.2566 28.09C47.8366 27.77 48.1266 27.28 48.1266 26.62C48.1266 26.06 47.9266 25.68 47.5266 25.48C47.1466 25.28 46.6366 25.13 45.9966 25.03L43.5066 24.64C42.8666 24.54 42.2366 24.4 41.6166 24.22C41.0166 24.02 40.4766 23.75 39.9966 23.41C39.5366 23.07 39.1666 22.64 38.8866 22.12C38.6066 21.58 38.4666 20.93 38.4666 20.17C38.4666 18.55 39.0666 17.31 40.2666 16.45C41.4866 15.59 43.1566 15.16 45.2766 15.16C46.7766 15.16 48.0466 15.37 49.0866 15.79C50.1466 16.21 51.0166 16.8 51.6966 17.56L49.6866 19.78C49.2466 19.3 48.6566 18.88 47.9166 18.52C47.1966 18.14 46.2766 17.95 45.1566 17.95C43.1966 17.95 42.2166 18.56 42.2166 19.78C42.2166 20.34 42.4166 20.73 42.8166 20.95C43.2166 21.15 43.7366 21.3 44.3766 21.4L46.8366 21.79C47.4966 21.89 48.1266 22.04 48.7266 22.24C49.3466 22.42 49.8866 22.68 50.3466 23.02C50.8266 23.36 51.2066 23.79 51.4866 24.31C51.7666 24.83 51.9066 25.47 51.9066 26.23C51.9066 27.83 51.2866 29.09 50.0466 30.01C48.8266 30.91 47.1166 31.36 44.9166 31.36ZM55.0748 31V15.52H58.2548V17.65H58.4348C58.6748 16.97 59.0148 16.39 59.4548 15.91C59.9148 15.41 60.5548 15.16 61.3748 15.16C62.1548 15.16 62.7748 15.39 63.2348 15.85C63.6948 16.29 63.9948 16.92 64.1348 17.74H64.2848C64.5448 17.04 64.9248 16.44 65.4248 15.94C65.9448 15.42 66.6748 15.16 67.6148 15.16C68.7548 15.16 69.5748 15.57 70.0748 16.39C70.5748 17.21 70.8248 18.42 70.8248 20.02V31H67.6748V20.47C67.6748 19.57 67.5448 18.94 67.2848 18.58C67.0448 18.22 66.6748 18.04 66.1748 18.04C65.7148 18.04 65.3248 18.19 65.0048 18.49C64.7048 18.79 64.5548 19.25 64.5548 19.87V31H61.3748V20.47C61.3748 19.57 61.2548 18.94 61.0148 18.58C60.7748 18.22 60.4048 18.04 59.9048 18.04C59.4248 18.04 59.0248 18.19 58.7048 18.49C58.4048 18.79 58.2548 19.25 58.2548 19.87V31H55.0748ZM81.9131 13.12C81.0131 13.12 80.3731 12.93 79.9931 12.55C79.6331 12.17 79.4531 11.71 79.4531 11.17V10.45C79.4531 9.91 79.6331 9.45 79.9931 9.07C80.3731 8.69 81.0131 8.5 81.9131 8.5C82.8131 8.5 83.4431 8.69 83.8031 9.07C84.1831 9.45 84.3731 9.91 84.3731 10.45V11.17C84.3731 11.71 84.1831 12.17 83.8031 12.55C83.4431 12.93 82.8131 13.12 81.9131 13.12ZM74.8931 27.97H79.9931V18.55H74.8931V15.52H83.8331V27.97H88.5731V31H74.8931V27.97ZM92.1914 31V15.52H96.0314V18.25H96.1814C96.5214 17.41 97.0414 16.69 97.7414 16.09C98.4614 15.47 99.4514 15.16 100.711 15.16C102.231 15.16 103.461 15.67 104.401 16.69C105.361 17.69 105.841 19.13 105.841 21.01V31H102.001V21.55C102.001 19.31 101.031 18.19 99.0914 18.19C98.6914 18.19 98.3114 18.24 97.9514 18.34C97.5914 18.44 97.2614 18.6 96.9614 18.82C96.6814 19.02 96.4514 19.27 96.2714 19.57C96.1114 19.87 96.0314 20.23 96.0314 20.65V31H92.1914Z" fill="#02073E"/>
<g filter="url(#filter0_d_2005_36)">
<path d="M10.575 53.3C9.79167 53.3 9.09167 53.225 8.475 53.075C7.875 52.9417 7.33333 52.75 6.85 52.5C6.36667 52.2333 5.93333 51.925 5.55 51.575C5.18333 51.2083 4.84167 50.8167 4.525 50.4L5.225 49.85C5.84167 50.6667 6.55 51.3167 7.35 51.8C8.16667 52.2667 9.24167 52.5 10.575 52.5C12.0917 52.5 13.2667 52.1583 14.1 51.475C14.9333 50.7917 15.35 49.8 15.35 48.5C15.35 47.85 15.25 47.3 15.05 46.85C14.85 46.4 14.575 46.025 14.225 45.725C13.875 45.425 13.4583 45.1917 12.975 45.025C12.5083 44.8583 12 44.7333 11.45 44.65L9.45 44.325C8.56667 44.175 7.83333 43.95 7.25 43.65C6.68333 43.35 6.23333 43 5.9 42.6C5.56667 42.2 5.325 41.7583 5.175 41.275C5.04167 40.775 4.975 40.2667 4.975 39.75C4.975 38.2333 5.475 37.1083 6.475 36.375C7.475 35.625 8.81667 35.25 10.5 35.25C11.9167 35.25 13.0583 35.475 13.925 35.925C14.8083 36.375 15.5083 36.975 16.025 37.725L15.35 38.3C14.8333 37.5667 14.1917 37.0083 13.425 36.625C12.6583 36.2417 11.6667 36.05 10.45 36.05C9.01667 36.05 7.9 36.3583 7.1 36.975C6.3 37.575 5.9 38.4917 5.9 39.725C5.9 40.3417 5.99167 40.8667 6.175 41.3C6.375 41.7333 6.64167 42.1 6.975 42.4C7.325 42.6833 7.73333 42.9167 8.2 43.1C8.66667 43.2667 9.18333 43.3917 9.75 43.475L11.725 43.8C12.625 43.95 13.3667 44.1833 13.95 44.5C14.5333 44.8 15 45.1583 15.35 45.575C15.7 45.9917 15.9417 46.45 16.075 46.95C16.2083 47.45 16.275 47.9583 16.275 48.475C16.275 50.0583 15.7667 51.2583 14.75 52.075C13.7333 52.8917 12.3417 53.3 10.575 53.3ZM20.9902 34.5H21.8652V42H21.9402C22.0569 41.7167 22.2152 41.4417 22.4152 41.175C22.6319 40.9083 22.8986 40.675 23.2152 40.475C23.5319 40.275 23.9069 40.1167 24.3402 40C24.7736 39.8667 25.2736 39.8 25.8402 39.8C27.2569 39.8 28.3402 40.2167 29.0902 41.05C29.8402 41.8667 30.2152 43.0583 30.2152 44.625V53H29.3402V44.775C29.3402 43.3083 29.0236 42.2417 28.3902 41.575C27.7569 40.9083 26.8402 40.575 25.6402 40.575C25.1569 40.575 24.6819 40.6417 24.2152 40.775C23.7652 40.9083 23.3652 41.1083 23.0152 41.375C22.6652 41.6417 22.3819 41.975 22.1652 42.375C21.9652 42.775 21.8652 43.2417 21.8652 43.775V53H20.9902V34.5ZM44.5805 53C44.1971 53 43.9221 52.9083 43.7555 52.725C43.5888 52.5417 43.4971 52.2833 43.4805 51.95V51.025H43.3805C43.0805 51.6583 42.5971 52.2 41.9305 52.65C41.2638 53.0833 40.3471 53.3 39.1805 53.3C37.7971 53.3 36.7305 52.9833 35.9805 52.35C35.2305 51.7167 34.8555 50.8167 34.8555 49.65C34.8555 49.1167 34.9388 48.625 35.1055 48.175C35.2721 47.725 35.5555 47.3417 35.9555 47.025C36.3555 46.6917 36.8805 46.4417 37.5305 46.275C38.1805 46.0917 38.9805 46 39.9305 46H43.4555V44.15C43.4555 42.9333 43.1305 42.0333 42.4805 41.45C41.8471 40.8667 40.9721 40.575 39.8555 40.575C38.9555 40.575 38.1638 40.7667 37.4805 41.15C36.7971 41.5167 36.2805 42.1 35.9305 42.9L35.2805 42.475C35.6305 41.675 36.1805 41.0333 36.9305 40.55C37.6971 40.05 38.6805 39.8 39.8805 39.8C41.2805 39.8 42.3721 40.175 43.1555 40.925C43.9388 41.6583 44.3305 42.7 44.3305 44.05V52.225H46.3805V53H44.5805ZM39.2555 52.55C39.8221 52.55 40.3555 52.4833 40.8555 52.35C41.3721 52.2 41.8221 51.9917 42.2055 51.725C42.5888 51.4417 42.8888 51.1 43.1055 50.7C43.3388 50.3 43.4555 49.8333 43.4555 49.3V46.7H39.9555C38.4721 46.7 37.4055 46.9417 36.7555 47.425C36.1221 47.8917 35.8055 48.5083 35.8055 49.275V50.025C35.8055 50.8417 36.1221 51.4667 36.7555 51.9C37.3888 52.3333 38.2221 52.55 39.2555 52.55ZM59.1457 51.025H59.0707C58.7707 51.625 58.2874 52.1583 57.6207 52.625C56.954 53.075 56.0957 53.3 55.0457 53.3C53.4124 53.3 52.1374 52.7333 51.2207 51.6C50.304 50.4667 49.8457 48.7833 49.8457 46.55C49.8457 44.3167 50.304 42.6333 51.2207 41.5C52.1374 40.3667 53.4124 39.8 55.0457 39.8C56.0957 39.8 56.954 40.0333 57.6207 40.5C58.2874 40.95 58.7707 41.475 59.0707 42.075H59.1457V34.5H60.0207V53H59.1457V51.025ZM55.2457 52.525C55.7624 52.525 56.254 52.45 56.7207 52.3C57.1874 52.15 57.5957 51.9333 57.9457 51.65C58.3124 51.3667 58.604 51.025 58.8207 50.625C59.0374 50.225 59.1457 49.7833 59.1457 49.3V43.8C59.1457 43.3167 59.0374 42.875 58.8207 42.475C58.604 42.075 58.3124 41.7333 57.9457 41.45C57.5957 41.1667 57.1874 40.95 56.7207 40.8C56.254 40.65 55.7624 40.575 55.2457 40.575C53.8124 40.575 52.7124 41.05 51.9457 42C51.179 42.9333 50.7957 44.2083 50.7957 45.825V47.275C50.7957 48.8917 51.179 50.175 51.9457 51.125C52.7124 52.0583 53.8124 52.525 55.2457 52.525ZM74.1359 51.025H74.0609C73.7609 51.625 73.2776 52.1583 72.6109 52.625C71.9443 53.075 71.0859 53.3 70.0359 53.3C68.4026 53.3 67.1276 52.7333 66.2109 51.6C65.2943 50.4667 64.8359 48.7833 64.8359 46.55C64.8359 44.3167 65.2943 42.6333 66.2109 41.5C67.1276 40.3667 68.4026 39.8 70.0359 39.8C71.0859 39.8 71.9443 40.0333 72.6109 40.5C73.2776 40.95 73.7609 41.475 74.0609 42.075H74.1359V34.5H75.0109V53H74.1359V51.025ZM70.2359 52.525C70.7526 52.525 71.2443 52.45 71.7109 52.3C72.1776 52.15 72.5859 51.9333 72.9359 51.65C73.3026 51.3667 73.5943 51.025 73.8109 50.625C74.0276 50.225 74.1359 49.7833 74.1359 49.3V43.8C74.1359 43.3167 74.0276 42.875 73.8109 42.475C73.5943 42.075 73.3026 41.7333 72.9359 41.45C72.5859 41.1667 72.1776 40.95 71.7109 40.8C71.2443 40.65 70.7526 40.575 70.2359 40.575C68.8026 40.575 67.7026 41.05 66.9359 42C66.1693 42.9333 65.7859 44.2083 65.7859 45.825V47.275C65.7859 48.8917 66.1693 50.175 66.9359 51.125C67.7026 52.0583 68.8026 52.525 70.2359 52.525ZM89.5512 53C89.1678 53 88.8928 52.9083 88.7262 52.725C88.5595 52.5417 88.4678 52.2833 88.4512 51.95V51.025H88.3512C88.0512 51.6583 87.5678 52.2 86.9012 52.65C86.2345 53.0833 85.3178 53.3 84.1512 53.3C82.7678 53.3 81.7012 52.9833 80.9512 52.35C80.2012 51.7167 79.8262 50.8167 79.8262 49.65C79.8262 49.1167 79.9095 48.625 80.0762 48.175C80.2428 47.725 80.5262 47.3417 80.9262 47.025C81.3262 46.6917 81.8512 46.4417 82.5012 46.275C83.1512 46.0917 83.9512 46 84.9012 46H88.4262V44.15C88.4262 42.9333 88.1012 42.0333 87.4512 41.45C86.8178 40.8667 85.9428 40.575 84.8262 40.575C83.9262 40.575 83.1345 40.7667 82.4512 41.15C81.7678 41.5167 81.2512 42.1 80.9012 42.9L80.2512 42.475C80.6012 41.675 81.1512 41.0333 81.9012 40.55C82.6678 40.05 83.6512 39.8 84.8512 39.8C86.2512 39.8 87.3428 40.175 88.1262 40.925C88.9095 41.6583 89.3012 42.7 89.3012 44.05V52.225H91.3512V53H89.5512ZM84.2262 52.55C84.7928 52.55 85.3262 52.4833 85.8262 52.35C86.3428 52.2 86.7928 51.9917 87.1762 51.725C87.5595 51.4417 87.8595 51.1 88.0762 50.7C88.3095 50.3 88.4262 49.8333 88.4262 49.3V46.7H84.9262C83.4428 46.7 82.3762 46.9417 81.7262 47.425C81.0928 47.8917 80.7762 48.5083 80.7762 49.275V50.025C80.7762 50.8417 81.0928 51.4667 81.7262 51.9C82.3595 52.3333 83.1928 52.55 84.2262 52.55ZM105.141 40.1H106.041L98.9914 57.125C98.8581 57.425 98.6914 57.6417 98.4914 57.775C98.2914 57.925 97.9997 58 97.6164 58H95.2164V57.225H98.0664L99.9914 52.575L94.8414 40.1H95.7664L100.416 51.45H100.491L105.141 40.1Z" fill="#02073E"/>
</g>
<defs>
<filter id="filter0_d_2005_36" x="0.524902" y="34.5" width="109.517" height="31.5" filterUnits="userSpaceOnUse" color-interpolation-filters="sRGB">
<feFlood flood-opacity="0" result="BackgroundImageFix"/>
<feColorMatrix in="SourceAlpha" type="matrix" values="0 0 0 0 0 0 0 0 0 0 0 0 0 0 0 0 0 0 127 0" result="hardAlpha"/>
<feOffset dy="4"/>
<feGaussianBlur stdDeviation="2"/>
<feComposite in2="hardAlpha" operator="out"/>
<feColorMatrix type="matrix" values="0 0 0 0 0 0 0 0 0 0 0 0 0 0 0 0 0 0 0.25 0"/>
<feBlend mode="normal" in2="BackgroundImageFix" result="effect1_dropShadow_2005_36"/>
<feBlend mode="normal" in="SourceGraphic" in2="effect1_dropShadow_2005_36" result="shape"/>
</filter>
</defs>
</svg>
